# xmcd
# 
# Track frame offsets:
#     150
#     22374
#     42671
#     67821
#     89785
#     113275
#     133229
#     152119
#     171093
#     188850
#     205985
#     231654
#     256054
#     275096
#     294620
# 
# Disc length: 4189
# 
# Revision: 0
# Processed by: cddbd v1.5.2PL0 Copyright (c) Steve Scherf et al.
# Submitted via: fre:ac v1.0.17
# 
DISCID=ea105b0f
DTITLE=萬芳 - 萬芳24K 24bit黃金精選輯-地老天芳
DYEAR=1998
DGENRE=
TTITLE0=猜心\t
TTITLE1=新不了情
TTITLE2=多事的秋
TTITLE3=戀你
TTITLE4=試著瞭解
TTITLE5=我依然記得你眼裡的依戀
TTITLE6=一切如新
TTITLE7=斷線
TTITLE8=FLY AWAY
TTITLE9=割愛
TTITLE10=算了吧
TTITLE11=四季
TTITLE12=就值得了愛
TTITLE13=然後你怎麼說
TTITLE14=孩子氣
EXTD=YEAR: 1998
EXTT0=
EXTT1=
EXTT2=
EXTT3=
EXTT4=
EXTT5=
EXTT6=
EXTT7=
EXTT8=
EXTT9=
EXTT10=
EXTT11=
EXTT12=
EXTT13=
EXTT14=
PLAYORDER=
